<svg xmlns="http://www.w3.org/2000/svg" viewBox="0 0 139.19 40.12"><defs><style>.cls-1{fill:#00b7ae;}</style></defs><g id="Layer_2" data-name="Layer 2"><g id="Layer_1-2" data-name="Layer 1"><path class="cls-1" d="M29,.43a5.22,5.22,0,0,0-1.24.14,2.52,2.52,0,0,0-1,.48,3.35,3.35,0,0,0-.76,1,7.9,7.9,0,0,0-.62,1.56H25.2V.17H36.9V3.58h-.24A8.61,8.61,0,0,0,36.05,2a3.37,3.37,0,0,0-.77-1,2.52,2.52,0,0,0-1-.48A5.08,5.08,0,0,0,33.08.43h-.67V13.2h1.71v.26H28V13.2H29.7V.43Z"/><path class="cls-1" d="M39.55,13.2V.26H38.32V0h3.51V7.24h0c.05-.11.13-.27.25-.49a2.79,2.79,0,0,1,.53-.66,3.45,3.45,0,0,1,.91-.56A3.29,3.29,0,0,1,45,5.28,2.53,2.53,0,0,1,46.86,6a2.65,2.65,0,0,1,.68,1.94V13.2h1.25v.26H44.11V13.2h1.16V7.3A1.74,1.74,0,0,0,45,6.15a1.09,1.09,0,0,0-.86-.36,1.85,1.85,0,0,0-.86.21,2.09,2.09,0,0,0-.72.65A3.47,3.47,0,0,0,42,7.71a5.09,5.09,0,0,0-.19,1.49v4H43v.26H38.32V13.2Z"/><path class="cls-1" d="M52.56,9.61c0,.45,0,.9.06,1.36a4,4,0,0,0,.3,1.23,2.18,2.18,0,0,0,.71.9,2.07,2.07,0,0,0,1.3.36,2.55,2.55,0,0,0,1.26-.28,2.84,2.84,0,0,0,.84-.65,2.93,2.93,0,0,0,.49-.71,2.31,2.31,0,0,0,.18-.53l.26.1a3.3,3.3,0,0,1-.32.75,2.84,2.84,0,0,1-.61.75,3.58,3.58,0,0,1-1,.58,3.83,3.83,0,0,1-1.4.23,5.63,5.63,0,0,1-1.81-.29,4.23,4.23,0,0,1-1.46-.84,3.75,3.75,0,0,1-1-1.34A4.32,4.32,0,0,1,50,9.43a3.93,3.93,0,0,1,.34-1.57,4.31,4.31,0,0,1,.92-1.35,4.86,4.86,0,0,1,1.39-1,4,4,0,0,1,1.7-.36,4.58,4.58,0,0,1,1.31.2A3.47,3.47,0,0,1,56.88,6a3.42,3.42,0,0,1,.85,1.11,3.57,3.57,0,0,1,.34,1.63H52.56Zm3-2.35c0-.14,0-.3,0-.5a1.85,1.85,0,0,0-.13-.6,1,1,0,0,0-1.06-.71,1.44,1.44,0,0,0-1,.3,1.88,1.88,0,0,0-.52.76,3.79,3.79,0,0,0-.21,1c0,.36-.05.7-.07,1h3Z"/><path class="cls-1" d="M17.14,25c-.21-.64-.47-1.31-.77-2a8.42,8.42,0,0,0-1.15-1.94,5.69,5.69,0,0,0-1.77-1.44,5.42,5.42,0,0,0-2.61-.57,6.12,6.12,0,0,0-3.33.79A4.91,4.91,0,0,0,5.68,22a10.37,10.37,0,0,0-.8,3.31c-.11,1.28-.17,2.69-.17,4.21a29.52,29.52,0,0,0,.35,5,8.6,8.6,0,0,0,1.08,3.12,4,4,0,0,0,1.91,1.62,7.55,7.55,0,0,0,2.79.46,5.17,5.17,0,0,0,2.35-.52,6.5,6.5,0,0,0,1.87-1.37,8.2,8.2,0,0,0,1.36-2,10.4,10.4,0,0,0,.81-2.29h.46v6.13h-.46a1.11,1.11,0,0,0-.35-.48,1.23,1.23,0,0,0-.61-.13,3.58,3.58,0,0,0-.89.16l-1.26.35c-.47.12-1,.24-1.55.35a9.93,9.93,0,0,1-1.76.16,10.44,10.44,0,0,1-4.08-.83A11.19,11.19,0,0,1,3.28,37,11.07,11.07,0,0,1,.9,33.67,10.3,10.3,0,0,1,1,25a11.33,11.33,0,0,1,2.55-3.41A11.49,11.49,0,0,1,7,19.44a10.16,10.16,0,0,1,3.77-.77,8.43,8.43,0,0,1,1.72.17L14,19.2c.46.13.87.25,1.23.37a3.41,3.41,0,0,0,.93.17,1.33,1.33,0,0,0,.6-.1c.14-.07.23-.24.29-.51h.46V25Z"/><path class="cls-1" d="M29.91,19.13v.41H27.25V29h8.36V19.54H33v-.41h9.51v.41H39.8V39.31h2.66v.4H33v-.4h2.66V29.42H27.25v9.89h2.66v.4H20.4v-.4h2.66V19.54H20.4v-.41Z"/><path class="cls-1" d="M44.52,25a11.53,11.53,0,0,1,2.56-3.41,11.3,11.3,0,0,1,3.5-2.18,10.25,10.25,0,0,1,3.78-.77,11.15,11.15,0,0,1,7.42,2.89,10.72,10.72,0,0,1,2.45,3.37,10.24,10.24,0,0,1,.94,4.46,9.84,9.84,0,0,1-.88,4.12,11.56,11.56,0,0,1-2.37,3.43,11.28,11.28,0,0,1-3.44,2.32,10.14,10.14,0,0,1-4.12.86,10.5,10.5,0,0,1-4.1-.83,11,11,0,0,1-5.84-5.62,10.4,10.4,0,0,1,.1-8.64Zm4.06,9.44a8.77,8.77,0,0,0,1.09,3.15,3.93,3.93,0,0,0,1.9,1.63,7.59,7.59,0,0,0,2.79.46,6.1,6.1,0,0,0,3.36-.79,4.93,4.93,0,0,0,1.82-2.2,10.47,10.47,0,0,0,.76-3.32c.11-1.29.16-2.68.16-4.18,0-1.35,0-2.64-.13-3.86a9.89,9.89,0,0,0-.73-3.24,5.07,5.07,0,0,0-1.84-2.22,6,6,0,0,0-3.4-.83,6,6,0,0,0-3.23.77A4.87,4.87,0,0,0,49.28,22a10.36,10.36,0,0,0-.84,3.3,38.6,38.6,0,0,0-.2,4.19A30,30,0,0,0,48.58,34.47Z"/><path class="cls-1" d="M68.06,33.29c0,.24.11.54.21.92a8.24,8.24,0,0,0,.41,1.21,10.71,10.71,0,0,0,.7,1.33,6.71,6.71,0,0,0,1,1.26,6.35,6.35,0,0,0,1.29,1,5.14,5.14,0,0,0,1.19.5A4.2,4.2,0,0,0,74,39.7h.93a5.75,5.75,0,0,0,2.52-.48A4.37,4.37,0,0,0,79,38.06a4.27,4.27,0,0,0,.79-1.46A4.83,4.83,0,0,0,80,35.26a3,3,0,0,0-.5-1.76,4,4,0,0,0-1.35-1.16,9.28,9.28,0,0,0-1.91-.78L74,30.91a20.48,20.48,0,0,1-2.2-.78A7.23,7.23,0,0,1,69.91,29a5.27,5.27,0,0,1-1.34-1.74,6,6,0,0,1-.51-2.61,5.09,5.09,0,0,1,.52-2.22A6,6,0,0,1,70,20.51a7.16,7.16,0,0,1,2.21-1.33A7.52,7.52,0,0,1,75,18.67a7.69,7.69,0,0,1,1.68.17c.48.12.9.24,1.27.36s.69.25,1,.37a2.06,2.06,0,0,0,.76.17.79.79,0,0,0,.54-.13,1.92,1.92,0,0,0,.27-.48H81v5.49h-.37c-.23-.67-.48-1.33-.74-2a7.18,7.18,0,0,0-1-1.78,4.44,4.44,0,0,0-1.53-1.28,4.94,4.94,0,0,0-2.34-.5,6.07,6.07,0,0,0-2,.32,4.67,4.67,0,0,0-1.49.84,3.71,3.71,0,0,0-.92,1.16,2.87,2.87,0,0,0-.32,1.3,2.56,2.56,0,0,0,.54,1.67,4.48,4.48,0,0,0,1.4,1.15,11.34,11.34,0,0,0,2,.82l2.28.72c.78.25,1.54.53,2.28.83a7.12,7.12,0,0,1,2,1.14,5.53,5.53,0,0,1,1.41,1.67,5.13,5.13,0,0,1,.53,2.43,6.35,6.35,0,0,1-.58,2.69A6.59,6.59,0,0,1,80.42,38a7.75,7.75,0,0,1-2.52,1.52,9.27,9.27,0,0,1-5,.39q-.88-.16-1.65-.36c-.51-.12-1-.24-1.36-.36a3.32,3.32,0,0,0-.88-.17,1,1,0,0,0-.58.13,1.09,1.09,0,0,0-.32.53h-.46V33.29Z"/><path class="cls-1" d="M101.73,19.13v4.95h-.37a10.75,10.75,0,0,0-.49-1.26,6.33,6.33,0,0,0-1-1.49,5.78,5.78,0,0,0-1.61-1.26,5,5,0,0,0-2.39-.53H91.3v8.93h1.62a4.66,4.66,0,0,0,1.81-.31A3.18,3.18,0,0,0,96,27.3a4.67,4.67,0,0,0,.81-1.36,10.13,10.13,0,0,0,.52-1.78h.38v9h-.38a16,16,0,0,0-.47-1.62,4.86,4.86,0,0,0-.74-1.37,3.35,3.35,0,0,0-1.14-.94,3.74,3.74,0,0,0-1.69-.35H91.3V39.31H96a6.11,6.11,0,0,0,2.4-.45,6,6,0,0,0,1.89-1.26,7.3,7.3,0,0,0,1.38-1.89,10.38,10.38,0,0,0,.83-2.33h.38v6.33H84.45v-.4h2.66V19.54H84.45v-.41Z"/><path class="cls-1" d="M112.05,19.13l9.63,13.76h0V19.54h-2.65v-.41h5.78v.41H122.2V39.71h-.78l-13-18.53h-.06V39.31H111v.4h-5.78v-.4h2.66V19.54h-2.66v-.41Z"/><path class="cls-1" d="M133.48,29.87A5.47,5.47,0,0,1,127.79,24a5.7,5.7,0,1,1,11.4,0A5.53,5.53,0,0,1,133.48,29.87Zm0-11c-2.74,0-4.9,1.86-4.9,5.18s2.18,5.16,4.88,5.16,4.9-1.86,4.9-5.16S136.19,18.85,133.5,18.85Zm-2,8.2V20.58h1.94c1.36,0,2.27.68,2.27,1.89a1.76,1.76,0,0,1-1.31,1.79l1.89,2.64-1.14.25-1.94-2.77h-.62v2.67Zm1.94-5.46h-.85V23.5h.8c.73,0,1.18-.3,1.18-.95S134.18,21.59,133.45,21.59Z"/></g></g></svg>